# xmcd
#
# Track frame offsets:
#	150
#	22472
#	41692
#	64247
#	82835
#	100585
#	116647
#	136280
#	158787
#	178767
#	198582
#	217057
#	232967
#	249355
#	272237
#	292687
#
# Disc length: 4166 seconds
#
# Revision: 0
# Processed by: cddbd v1.5.2PL0 Copyright (c) Steve Scherf et al.
# Submitted via: EasyCDDAExtractor 11.6.0.1
#
DISCID=e5104410
DTITLE=Various Artist - [1989] CBS/Sony EPIC 超级精选
DYEAR=1900
DGENRE=
TTITLE0=钟镇涛 - 人潮内
TTITLE1=甄楚倩 - 今天天气呵呵呵
TTITLE2=Blue Jeans - 无聊时候
TTITLE3=甄妮 - 独白
TTITLE4=周美茵 - 谁在意
TTITLE5=郭小霖 - 迷惘
TTITLE6=彭家丽 - 再见十九岁
TTITLE7=林志美+Blue Jeans - 伴你一亿里
TTITLE8=甄妮 - 红唇绿酒
TTITLE9=郭小霖 - 梦中见
TTITLE10=甄楚倩 - 试过也算拥有
TTITLE11=钟镇涛 - 只要你欣赏
TTITLE12=宝佩如 - 飞
TTITLE13=林忆莲、Blue Jeans - 下雨天
TTITLE14=Blue Jeans - 永远是你好友
TTITLE15=蔡枫华 - 知己
EXTD=
EXTT0=
EXTT1=
EXTT2=
EXTT3=
EXTT4=
EXTT5=
EXTT6=
EXTT7=
EXTT8=
EXTT9=
EXTT10=
EXTT11=
EXTT12=
EXTT13=
EXTT14=
EXTT15=
PLAYORDER=
